<svg id="Capa_1" enable-background="new 0 0 512 512" height="512" viewBox="0 0 512 512" width="512" xmlns="http://www.w3.org/2000/svg"><g><path d="m134.517 342.444h-30v35.04h-35.04v30h35.04v35.04h30v-35.04h35.04v-30h-35.04z"/><path d="m412.499 394.825h30.024v30h-30.024z"/><path d="m342.443 394.825h30.024v30h-30.024z"/><path d="m377.472 334.777h30.023v30h-30.023z"/><path d="m271.012 334.777h30.024v30h-30.024z"/><path d="m210.964 334.777h30.024v30h-30.024z"/><path d="m392.483 272.968h-121.483v-20.028c0-11.043 8.984-20.028 20.028-20.028h66.428c27.586 0 50.028-22.442 50.028-50.028s-22.442-50.028-50.028-50.028h-202.912c-11.043 0-20.028-8.985-20.028-20.028s8.984-20.028 20.028-20.028h66.428c27.586 0 50.028-22.443 50.028-50.028v-42.772h-30v42.772c0 11.043-8.984 20.028-20.028 20.028h-66.428c-27.585 0-50.028 22.442-50.028 50.028s22.442 50.028 50.028 50.028h202.912c11.044 0 20.028 8.984 20.028 20.028s-8.984 20.028-20.028 20.028h-66.428c-27.586 0-50.028 22.442-50.028 50.028v20.028h-121.484c-65.901 0-119.516 53.615-119.516 119.516s53.615 119.516 119.516 119.516c36.487 0 70.859-16.698 93.466-45.036h86.034c22.609 28.341 56.978 45.036 93.467 45.036 65.902 0 119.517-53.615 119.517-119.516s-53.615-119.516-119.517-119.516zm0 209.032c-29.343 0-56.863-14.424-73.616-38.583l-4.474-6.453h-116.787l-4.474 6.453c-16.752 24.159-44.272 38.583-73.616 38.583-49.359 0-89.516-40.157-89.516-89.516s40.157-89.516 89.516-89.516h272.967c49.359 0 89.517 40.157 89.517 89.516s-40.157 89.516-89.517 89.516z"/></g></svg>